<svg width="42" height="42" viewBox="0 0 42 42" fill="none" xmlns="http://www.w3.org/2000/svg">
<path d="M21 0C9.61592 0 0 8.72928 0 19.7695C0 25.686 2.85475 31.0969 7.46484 34.7812V40.7695C7.46484 41.1983 7.68787 41.5959 8.0538 41.8196C8.41557 42.0404 8.87091 42.0622 9.25671 41.8645L15.3642 38.7341C17.1913 39.2138 19.0848 39.457 21 39.457C32.5795 39.457 42 30.6252 42 19.7695C42 8.72383 32.378 0 21 0ZM21 36.9961C19.1482 36.9961 17.3204 36.741 15.568 36.2383C15.2674 36.1517 14.9454 36.1832 14.6676 36.3257L9.92578 38.7562V34.1785C9.92578 33.7914 9.74377 33.4271 9.43456 33.1948C5.00262 29.8642 2.46094 24.9708 2.46094 19.7695C2.46094 10.2254 10.7775 2.46094 21 2.46094C31.2225 2.46094 39.5391 10.2254 39.5391 19.7695C39.5391 29.2682 31.2225 36.9961 21 36.9961Z" fill="#454444"/>
<path d="M31.4213 13.1233L23.3971 17.4138L19.5895 13.3418C19.3701 13.1072 19.0679 12.9833 18.7579 13.0018C18.448 13.0203 18.1602 13.1789 17.9665 13.4381L9.23917 25.1047C8.919 25.5324 8.92042 26.1407 9.24258 26.5669C9.56474 26.9929 10.1207 27.1217 10.5789 26.8768L18.6028 22.5863L22.4105 26.6584C22.6298 26.8929 22.9318 27.0166 23.2423 26.998C23.552 26.9798 23.8398 26.8212 24.0338 26.5621L32.7611 14.8955C33.081 14.4677 33.0795 13.8592 32.7574 13.4332C32.4355 13.0073 31.8795 12.8782 31.4213 13.1233Z" fill="#454444"/>
</svg>
