<svg width="42" height="42" viewBox="0 0 42 42" fill="none" xmlns="http://www.w3.org/2000/svg">
<path d="M21 0C9.61592 0 0 8.72928 0 19.7695C0 25.686 2.85475 31.0969 7.46484 34.7812V40.7695C7.46484 41.1983 7.68787 41.5959 8.0538 41.8196C8.41557 42.0404 8.87091 42.0622 9.25671 41.8645L15.3642 38.7341C17.1913 39.2138 19.0848 39.457 21 39.457C32.5795 39.457 42 30.6252 42 19.7695C42 8.72383 32.378 0 21 0ZM21 36.9961C19.1482 36.9961 17.3204 36.741 15.568 36.2383C15.2674 36.1517 14.9454 36.1832 14.6676 36.3257L9.92578 38.7562V34.1785C9.92578 33.7914 9.74377 33.4271 9.43456 33.1948C5.00262 29.8642 2.46094 24.9708 2.46094 19.7695C2.46094 10.2254 10.7775 2.46094 21 2.46094C31.2225 2.46094 39.5391 10.2254 39.5391 19.7695C39.5391 29.2682 31.2225 36.9961 21 36.9961Z" fill="#454444"/>
<path d="M30.0312 10.0288C29.8496 9.82537 29.5629 9.77082 29.3254 9.87459L9.55599 18.5288C9.33696 18.6248 9.193 18.8393 9.18767 19.0788C9.18234 19.318 9.31646 19.5386 9.53138 19.6444L14.2518 21.9659L15.4282 29.023C15.4663 29.2908 15.6767 29.5062 15.9507 29.5451C16.1476 29.5734 16.3432 29.5041 16.4786 29.3647L20.2052 25.638L25.5233 29.4368C25.6939 29.5582 25.9137 29.5849 26.1073 29.5082C26.3013 29.4315 26.4432 29.2613 26.4842 29.0566L30.1756 10.5587C30.2121 10.3754 30.165 10.1789 30.0312 10.0288ZM14.7391 20.8343L11.263 19.1248L24.9958 13.1132L14.7391 20.8343ZM16.6644 22.6632L16.0922 25.524L15.4749 21.8203L23.0205 16.1401L16.8321 22.3494C16.7452 22.4363 16.6873 22.5495 16.6644 22.6632ZM17.0388 27.0641L17.6844 23.8374L19.1901 24.9129L17.0388 27.0641ZM25.4638 27.8819L18.2151 22.7046L28.5703 12.315L25.4638 27.8819Z" fill="#454444"/>
</svg>
