<svg width="42" height="42" viewBox="0 0 42 42" fill="none" xmlns="http://www.w3.org/2000/svg">
<path d="M21 0C9.61593 0 0 8.72929 0 19.7696C0 25.6861 2.85475 31.0969 7.46485 34.7813V40.7696C7.46485 41.1983 7.68787 41.596 8.05381 41.8196C8.41558 42.0404 8.87092 42.0622 9.25672 41.8645L15.3642 38.7342C17.1913 39.2139 19.0848 39.4571 21 39.4571C32.5796 39.4571 42 30.6252 42 19.7696C42 8.72384 32.378 0 21 0ZM21 36.9961C19.1482 36.9961 17.3205 36.7411 15.568 36.2383C15.2674 36.1518 14.9454 36.1832 14.6676 36.3258L9.92579 38.7563V34.1786C9.92579 33.7915 9.74378 33.4271 9.43457 33.1948C5.00263 29.8642 2.46094 24.9709 2.46094 19.7696C2.46094 10.2254 10.7775 2.46094 21 2.46094C31.2225 2.46094 39.5391 10.2254 39.5391 19.7696C39.5391 29.2682 31.2225 36.9961 21 36.9961Z" fill="#454444"/>
<path d="M28.4571 25.6904L24.1497 22.8927C23.6788 22.5864 23.1181 22.4827 22.5693 22.5962C22.0199 22.7118 21.5475 23.0363 21.2412 23.5094L21.0387 23.8206C19.1745 23.2045 17.1189 22.4175 15.8882 18.8551L16.3978 18.4122C17.2724 17.6518 17.3642 16.3216 16.6038 15.4456L13.2342 11.5692C12.9805 11.277 12.5375 11.2468 12.2453 11.4998L10.1295 13.3388C8.27365 14.9522 9.14058 17.3385 9.42582 18.1228C9.43844 18.1578 9.45386 18.1914 9.47208 18.2244C9.54567 18.3561 11.3027 21.4917 14.1404 24.3819C16.9893 27.2841 22.1327 29.9641 22.2904 30.0419C22.8777 30.4232 23.5386 30.6061 24.1925 30.6061C25.3404 30.6061 26.466 30.0433 27.1374 29.0117L28.6638 26.6611C28.8741 26.3352 28.7815 25.9014 28.4571 25.6904Z" fill="#454444"/>
<path d="M22.3213 15.2879C21.9484 15.1807 21.5609 15.3973 21.455 15.7701C21.3492 16.1423 21.5651 16.5298 21.9372 16.6357C22.9815 16.9328 23.8133 17.7661 24.1077 18.8111C24.1946 19.1194 24.4756 19.322 24.7819 19.322C24.845 19.322 24.9088 19.3136 24.9725 19.296C25.3447 19.1909 25.5619 18.804 25.4568 18.4312C25.0314 16.9216 23.8295 15.7169 22.3213 15.2879Z" fill="#454444"/>
<path d="M27.6546 19.4731C27.7177 19.4731 27.7815 19.4647 27.8453 19.4472C28.2181 19.3421 28.4347 18.9545 28.3295 18.5823C27.5026 15.6507 25.1695 13.3128 22.24 12.4788C21.8678 12.3715 21.4803 12.5895 21.3744 12.9616C21.2686 13.3338 21.4845 13.7213 21.8566 13.8272C24.3215 14.528 26.2845 16.4967 26.9804 18.9629C27.068 19.2713 27.3484 19.4731 27.6546 19.4731Z" fill="#454444"/>
<path d="M21.9379 9.21494C21.565 9.10772 21.1774 9.32427 21.0716 9.69782C20.9658 10.07 21.1817 10.4575 21.5538 10.5634C25.7301 11.7513 29.057 15.0859 30.2358 19.265C30.3227 19.5733 30.6037 19.7759 30.91 19.7759C30.9731 19.7759 31.0368 19.7675 31.1006 19.7499C31.4727 19.6448 31.69 19.2572 31.5849 18.8851C30.275 14.2406 26.5788 10.536 21.9379 9.21494Z" fill="#454444"/>
</svg>
