<svg width="42" height="42" viewBox="0 0 42 42" fill="none" xmlns="http://www.w3.org/2000/svg">
<path d="M21 0C9.61592 0 0 8.72928 0 19.7695C0 25.686 2.85475 31.0969 7.46484 34.7812V40.7695C7.46484 41.1983 7.68787 41.5959 8.0538 41.8196C8.41557 42.0404 8.87091 42.0622 9.25671 41.8645L15.3642 38.7341C17.1913 39.2138 19.0848 39.457 21 39.457C32.5795 39.457 42 30.6252 42 19.7695C42 8.72383 32.378 0 21 0ZM21 36.9961C19.1482 36.9961 17.3204 36.741 15.568 36.2383C15.2674 36.1517 14.9454 36.1832 14.6676 36.3257L9.92578 38.7562V34.1785C9.92578 33.7914 9.74377 33.4271 9.43456 33.1948C5.00262 29.8642 2.46094 24.9708 2.46094 19.7695C2.46094 10.2254 10.7775 2.46094 21 2.46094C31.2225 2.46094 39.5391 10.2254 39.5391 19.7695C39.5391 29.2682 31.2225 36.9961 21 36.9961Z" fill="#454444"/>
<path d="M31.4253 25.0646C31.2951 24.8484 30.9511 24.7178 30.4349 24.4581C29.9178 24.1983 27.3769 22.9402 26.9046 22.7676C26.4309 22.5944 26.0855 22.5073 25.7415 23.0273C25.3975 23.5478 24.4071 24.7178 24.1051 25.0646C23.8036 25.4124 23.5026 25.456 22.9854 25.1957C22.4692 24.936 20.8047 24.3865 18.8311 22.6162C17.2954 21.2386 16.2583 19.5379 15.9567 19.017C15.6557 18.497 15.9253 18.216 16.1834 17.9572C16.4162 17.724 16.7005 17.3501 16.9586 17.0469C17.2176 16.7431 17.3035 16.5269 17.4748 16.1796C17.648 15.8328 17.5616 15.5295 17.4318 15.2688C17.303 15.009 16.2687 12.4512 15.8384 11.4103C15.4081 10.3704 14.9783 10.5435 14.6763 10.5435C14.3753 10.5435 14.0303 10.5 13.6859 10.5C13.3414 10.5 12.7814 10.6301 12.3076 11.1501C11.8344 11.6706 10.5 12.9282 10.5 15.4855C10.5 18.0433 12.3506 20.5145 12.6096 20.8608C12.8677 21.2072 16.1829 26.6265 21.4354 28.7079C26.6885 30.7883 26.6885 30.0941 27.6359 30.0071C28.5824 29.9205 30.6921 28.7499 31.1243 27.5368C31.5536 26.3218 31.5536 25.2813 31.4253 25.0646Z" fill="#454444"/>
</svg>
