<svg width="32" height="32" viewBox="0 0 32 32" fill="none" xmlns="http://www.w3.org/2000/svg">
<path d="M16 0C7.32642 0 0 6.65088 0 15.0625C0 19.5703 2.17505 23.6929 5.6875 26.5V31.0625C5.6875 31.3892 5.85742 31.6921 6.13623 31.8626C6.41187 32.0308 6.75879 32.0474 7.05273 31.8967L11.7061 29.5117C13.0981 29.8772 14.5408 30.0625 16 30.0625C24.8225 30.0625 32 23.3335 32 15.0625C32 6.64673 24.6689 0 16 0ZM16 28.1875C14.5891 28.1875 13.1965 27.9932 11.8613 27.6101C11.6323 27.5442 11.387 27.5681 11.1753 27.6768L7.5625 29.5286V26.0408C7.5625 25.7459 7.42383 25.4683 7.18823 25.2913C3.81152 22.7537 1.875 19.0254 1.875 15.0625C1.875 7.79077 8.21143 1.875 16 1.875C23.7886 1.875 30.125 7.79077 30.125 15.0625C30.125 22.2996 23.7886 28.1875 16 28.1875Z" fill="#00C2FF"/>
<path d="M23.816 10.0881L17.7979 13.1527L14.9421 10.2441C14.7776 10.0766 14.5509 9.98806 14.3185 10.0013C14.086 10.0145 13.8702 10.1278 13.7248 10.3129L7.17938 18.6462C6.93925 18.9517 6.94032 19.3862 7.18194 19.6907C7.42356 19.9949 7.84053 20.0869 8.18421 19.912L14.2021 16.8474L17.0579 19.756C17.2224 19.9235 17.4489 20.0118 17.6817 19.9986C17.914 19.9856 18.1298 19.8723 18.2753 19.6872L24.8208 11.3539C25.0607 11.0484 25.0597 10.6137 24.818 10.3095C24.5766 10.0052 24.1597 9.91297 23.816 10.0881Z" fill="#00C2FF"/>
</svg>
