<svg width="32" height="32" viewBox="0 0 32 32" fill="none" xmlns="http://www.w3.org/2000/svg">
<path d="M16 0C7.32642 0 0 6.65088 0 15.0625C0 19.5703 2.17505 23.6929 5.6875 26.5V31.0625C5.6875 31.3892 5.85742 31.6921 6.13623 31.8626C6.41187 32.0308 6.75879 32.0474 7.05273 31.8967L11.7061 29.5117C13.0981 29.8772 14.5408 30.0625 16 30.0625C24.8225 30.0625 32 23.3335 32 15.0625C32 6.64673 24.6689 0 16 0ZM16 28.1875C14.5891 28.1875 13.1965 27.9932 11.8613 27.6101C11.6323 27.5442 11.387 27.5681 11.1753 27.6768L7.5625 29.5286V26.0408C7.5625 25.7459 7.42383 25.4683 7.18823 25.2913C3.81152 22.7537 1.875 19.0254 1.875 15.0625C1.875 7.79077 8.21143 1.875 16 1.875C23.7886 1.875 30.125 7.79077 30.125 15.0625C30.125 22.2996 23.7886 28.1875 16 28.1875Z" fill="#296DAC"/>
<g clip-path="url(#clip0)">
<path d="M22.8809 7.64111C22.7425 7.48611 22.5241 7.44455 22.3431 7.52361L7.28074 14.1173C7.11387 14.1904 7.00418 14.3539 7.00012 14.5364C6.99605 14.7186 7.09824 14.8867 7.26199 14.9673L10.8585 16.736L11.7548 22.1129C11.7838 22.3169 11.9441 22.481 12.1529 22.5107C12.3029 22.5322 12.452 22.4794 12.5551 22.3732L15.3944 19.5338L19.4463 22.4282C19.5763 22.5207 19.7438 22.541 19.8913 22.4826C20.0391 22.4241 20.1472 22.2944 20.1785 22.1385L22.9909 8.04485C23.0188 7.90517 22.9828 7.75548 22.8809 7.64111ZM11.2298 15.8739L8.58136 14.5714L19.0444 9.99109L11.2298 15.8739ZM12.6966 17.2673L12.2607 19.447L11.7904 16.6251L17.5394 12.2973L12.8245 17.0282C12.7582 17.0945 12.7141 17.1807 12.6966 17.2673ZM12.9819 20.6204L13.4738 18.162L14.621 18.9813L12.9819 20.6204ZM19.401 21.2435L13.8782 17.2988L21.7678 9.38297L19.401 21.2435Z" fill="#296DAC"/>
</g>
<defs>
<clipPath id="clip0">
<rect width="16" height="16" fill="white" transform="translate(7 7)"/>
</clipPath>
</defs>
</svg>
