<svg width="32" height="32" viewBox="0 0 32 32" fill="none" xmlns="http://www.w3.org/2000/svg">
<path d="M16 0C7.32642 0 0 6.65088 0 15.0625C0 19.5703 2.17505 23.6929 5.6875 26.5V31.0625C5.6875 31.3892 5.85742 31.6921 6.13623 31.8626C6.41187 32.0308 6.75879 32.0474 7.05273 31.8967L11.7061 29.5117C13.0981 29.8772 14.5408 30.0625 16 30.0625C24.8225 30.0625 32 23.3335 32 15.0625C32 6.64673 24.6689 0 16 0ZM16 28.1875C14.5891 28.1875 13.1965 27.9932 11.8613 27.6101C11.6323 27.5442 11.387 27.5681 11.1753 27.6768L7.5625 29.5286V26.0408C7.5625 25.7459 7.42383 25.4683 7.18823 25.2913C3.81152 22.7537 1.875 19.0254 1.875 15.0625C1.875 7.79077 8.21143 1.875 16 1.875C23.7886 1.875 30.125 7.79077 30.125 15.0625C30.125 22.2996 23.7886 28.1875 16 28.1875Z" fill="#742DCD"/>
<path d="M22 19.7547L18.7182 17.6231C18.3594 17.3898 17.9322 17.3107 17.5141 17.3973C17.0955 17.4854 16.7356 17.7326 16.5022 18.093L16.3479 18.3301C14.9275 17.8607 13.3614 17.2611 12.4237 14.5469L12.8119 14.2094C13.4783 13.6301 13.5483 12.6166 12.9689 11.9491L10.4016 8.99576C10.2083 8.77309 9.87083 8.75013 9.64816 8.94289L8.03611 10.344C6.62215 11.5732 7.28267 13.3914 7.5 13.9889C7.50961 14.0156 7.52136 14.0412 7.53524 14.0663C7.59131 14.1667 8.92997 16.5557 11.092 18.7578C13.2626 20.969 17.1814 23.0109 17.3016 23.0702C17.749 23.3606 18.2526 23.5 18.7508 23.5C19.6254 23.5 20.483 23.0712 20.9945 22.2852L22.1575 20.4943C22.3177 20.246 22.2472 19.9155 22 19.7547Z" fill="#742DCD"/>
<path d="M17.0066 11.6478C16.7226 11.5661 16.4273 11.7311 16.3466 12.0152C16.266 12.2987 16.4305 12.594 16.714 12.6746C17.5096 12.901 18.1434 13.5359 18.3677 14.3321C18.4339 14.567 18.648 14.7213 18.8814 14.7213C18.9295 14.7213 18.978 14.7149 19.0266 14.7016C19.3102 14.6215 19.4757 14.3267 19.3956 14.0426C19.0715 12.8925 18.1557 11.9746 17.0066 11.6478Z" fill="#742DCD"/>
<path d="M21.0701 14.8367C21.1182 14.8367 21.1668 14.8303 21.2154 14.8169C21.4995 14.7368 21.6645 14.4415 21.5844 14.158C20.9543 11.9244 19.1767 10.1431 16.9447 9.50765C16.6611 9.42595 16.3659 9.59202 16.2852 9.87556C16.2046 10.1591 16.3691 10.4544 16.6526 10.535C18.5306 11.069 20.0262 12.5689 20.5565 14.4479C20.6232 14.6829 20.8368 14.8367 21.0701 14.8367Z" fill="#742DCD"/>
<path d="M16.7145 7.02091C16.4305 6.93921 16.1352 7.10421 16.0546 7.38881C15.9739 7.67235 16.1384 7.96764 16.4219 8.04827C19.6039 8.95335 22.1386 11.494 23.0368 14.678C23.103 14.913 23.3171 15.0673 23.5504 15.0673C23.5985 15.0673 23.6471 15.0609 23.6957 15.0476C23.9792 14.9675 24.1447 14.6722 24.0646 14.3886C23.0667 10.85 20.2505 8.02744 16.7145 7.02091Z" fill="#742DCD"/>
</svg>
