<svg width="32" height="32" viewBox="0 0 32 32" fill="none" xmlns="http://www.w3.org/2000/svg">
<path d="M16 0C7.32642 0 0 6.65088 0 15.0625C0 19.5703 2.17505 23.6929 5.6875 26.5V31.0625C5.6875 31.3892 5.85742 31.6921 6.13623 31.8626C6.41187 32.0308 6.75879 32.0474 7.05273 31.8967L11.7061 29.5117C13.0981 29.8772 14.5408 30.0625 16 30.0625C24.8225 30.0625 32 23.3335 32 15.0625C32 6.64673 24.6689 0 16 0ZM16 28.1875C14.5891 28.1875 13.1965 27.9932 11.8613 27.6101C11.6323 27.5442 11.387 27.5681 11.1753 27.6768L7.5625 29.5286V26.0408C7.5625 25.7459 7.42383 25.4683 7.18823 25.2913C3.81152 22.7537 1.875 19.0254 1.875 15.0625C1.875 7.79077 8.21143 1.875 16 1.875C23.7886 1.875 30.125 7.79077 30.125 15.0625C30.125 22.2996 23.7886 28.1875 16 28.1875Z" fill="#77C53A"/>
<path d="M23.9431 19.0969C23.8439 18.9321 23.5818 18.8326 23.1885 18.6347C22.7945 18.4368 20.8586 17.4783 20.4987 17.3467C20.1378 17.2148 19.8746 17.1484 19.6126 17.5446C19.3505 17.9412 18.5959 18.8326 18.3658 19.0969C18.1361 19.3619 17.9067 19.395 17.5127 19.1967C17.1194 18.9988 15.8512 18.5802 14.3475 17.2314C13.1775 16.1818 12.3872 14.886 12.1575 14.4891C11.9282 14.0929 12.1335 13.8788 12.3302 13.6817C12.5076 13.504 12.7242 13.2192 12.9208 12.9881C13.1182 12.7566 13.1836 12.5919 13.3141 12.3273C13.4461 12.0631 13.3803 11.832 13.2814 11.6334C13.1833 11.4355 12.3952 9.48666 12.0674 8.69358C11.7395 7.90123 11.412 8.03317 11.1819 8.03317C10.9526 8.03317 10.6898 8 10.4273 8C10.1649 8 9.73818 8.09914 9.37724 8.49531C9.01666 8.89185 8 9.85003 8 11.7985C8 13.7473 9.40995 15.6301 9.60732 15.894C9.80397 16.1578 12.3298 20.2869 16.3318 21.8727C20.3341 23.4577 20.3341 22.9289 21.0559 22.8625C21.7771 22.7966 23.3844 21.9047 23.7137 20.9804C24.0409 20.0547 24.0409 19.262 23.9431 19.0969Z" fill="#77C53A"/>
</svg>
